<?xml version="1.0"?>
<svg xmlns="http://www.w3.org/2000/svg" id="Layer_35" enable-background="new 0 0 64 64" height="512px" viewBox="0 0 64 64" width="512px" class=""><g><path d="m10 33h2c1.302 0 2.402-.839 2.816-2h-7.632c.414 1.161 1.514 2 2.816 2z" data-original="#000000" class="active-path" data-old_color="#000000" fill="#FFFFFF"/><path d="m15 33.974c-.838.635-1.87 1.026-3 1.026h-2c-1.13 0-2.162-.391-3-1.026v3.026h8z" data-original="#000000" class="active-path" data-old_color="#000000" fill="#FFFFFF"/><path d="m11.448 29c.575 0 1.056-.309 1.276-.785l5.636-12.215h2.64v24h3v-14h2.414l3.586 3.586v10.414h2.979l.021-10.345c0-.8-.312-1.554-.879-2.12l-3.122-3.121.001-8.262.835-.139c3.429-.571 6.336-2.801 7.777-5.964l2.255-4.944c.088-.193.133-.398.133-.61 0-.831-.664-1.495-1.48-1.495-.577 0-1.051.293-1.286.764l-2.129 4.261c-1.534 3.069-4.618 4.975-8.049 4.975h-5.961c-2.708 0-5.198 1.586-6.343 4.04l-4.616 9.893c-.091.192-.136.396-.136.608 0 .81.649 1.459 1.448 1.459z" data-original="#000000" class="active-path" data-old_color="#000000" fill="#FFFFFF"/><circle cx="25" cy="7" r="4" data-original="#000000" class="active-path" data-old_color="#000000" fill="#FFFFFF"/><path d="m13 61v-4.586l-4.586 4.586z" data-original="#000000" class="active-path" data-old_color="#000000" fill="#FFFFFF"/><circle cx="50" cy="50" r="5" data-original="#000000" class="active-path" data-old_color="#000000" fill="#FFFFFF"/><path d="m54.414 21 2 2-19 19h-18l-16.414 16.414v2.586h2.586l15-15h17.291l1.539-.384-1.282-2.136 5.347-5.345 2.135 1.281 13.384-13.83 2 2v-6.586z" data-original="#000000" class="active-path" data-old_color="#000000" fill="#FFFFFF"/><path d="m15 61h4v-10.586l-4 4z" data-original="#000000" class="active-path" data-old_color="#000000" fill="#FFFFFF"/><path d="m58.051 45.95 1.296-2.159-3.138-3.139-2.158 1.296-1.142-.464-.203-.535-.487-1.949h-4.438l-.612 2.452-1.22.496-2.158-1.296-3.138 3.139 1.296 2.159-.503 1.22-2.446.611v4.438l2.449.611.5 1.22-1.296 2.159 3.138 3.139 2.158-1.296 1.142.464.203.535.487 1.949h4.438l.612-2.452 1.22-.496 2.158 1.296 3.138-3.139-1.296-2.159.466-1.139.534-.205 1.949-.487v-4.438l-2.446-.611zm-8.051 11.05c-3.86 0-7-3.141-7-7s3.14-7 7-7 7 3.141 7 7-3.14 7-7 7z" data-original="#000000" class="active-path" data-old_color="#000000" fill="#FFFFFF"/><path d="m27 48h4v13h-4z" data-original="#000000" class="active-path" data-old_color="#000000" fill="#FFFFFF"/><path d="m21 48.414v12.586h4v-13h-3.586z" data-original="#000000" class="active-path" data-old_color="#000000" fill="#FFFFFF"/></g> </svg>
